HIERARCHY
ROOT Hips
{
	OFFSET 0.000000 0.000000 0.000000
	CHANNELS 6 Xposition Yposition Zposition Zrotation Yrotation Xrotation 
	JOINT LeftUpLeg_virtual
	{
		OFFSET 0.000000 0.000000 0.000000
		CHANNELS 3 Zrotation Yrotation Xrotation
		JOINT LeftUpLeg
		{
			OFFSET 8.479694 -4.795517 -0.379053
			CHANNELS 3 Zrotation Yrotation Xrotation
			JOINT LeftLeg
			{
				OFFSET 0.485052 -32.551468 0.112863
				CHANNELS 3 Zrotation Yrotation Xrotation
				JOINT LeftFoot
				{
					OFFSET 0.438033 -32.635670 -3.012641
					CHANNELS 3 Zrotation Yrotation Xrotation
					JOINT LeftToeBase
					{
						OFFSET 0.970169 -13.225353 11.864223
						CHANNELS 3 Zrotation Yrotation Xrotation
						End Site
						{
							OFFSET 0.000000 0.000000 0.000000
						}
					}
				}
			}
		}
	}
	JOINT RightUpLeg_virtual
	{
		OFFSET 0.000000 0.000000 0.000000
		CHANNELS 3 Zrotation Yrotation Xrotation
		JOINT RightUpLeg
		{
			OFFSET -8.479694 -4.795517 -0.379053
			CHANNELS 3 Zrotation Yrotation Xrotation
			JOINT RightLeg
			{
				OFFSET -0.484100 -32.551483 0.112903
				CHANNELS 3 Zrotation Yrotation Xrotation
				JOINT RightFoot
				{
					OFFSET -0.438985 -32.635651 -3.012681
					CHANNELS 3 Zrotation Yrotation Xrotation
					JOINT RightToeBase
					{
						OFFSET -0.970169 -13.225354 11.864223
						CHANNELS 3 Zrotation Yrotation Xrotation
						End Site
						{
							OFFSET 0.000000 0.000000 0.000000
						}
					}
				}
			}
		}
	}
	JOINT Spine_virtual
	{
		OFFSET 0.000000 0.000000 0.000000
		CHANNELS 3 Zrotation Yrotation Xrotation
		JOINT Spine
		{
			OFFSET 0.000000 7.722015 1.166203
			CHANNELS 3 Zrotation Yrotation Xrotation
			JOINT Spine1
			{
				OFFSET 0.000000 12.024086 0.248766
				CHANNELS 3 Zrotation Yrotation Xrotation
				JOINT Spine2
				{
					OFFSET -0.000000 11.503036 -0.491240
					CHANNELS 3 Zrotation Yrotation Xrotation
					JOINT Neck_virtual
					{
						OFFSET 0.000000 0.000000 0.000000
						CHANNELS 3 Zrotation Yrotation Xrotation
						JOINT Neck
						{
							OFFSET 0.000000 18.430687 -3.123054
							CHANNELS 3 Zrotation Yrotation Xrotation
							JOINT Head
							{
								OFFSET -0.000000 9.051071 1.034021
								CHANNELS 3 Zrotation Yrotation Xrotation
								End Site
								{
									OFFSET 0.000000 0.000000 0.000000
								}
							}
						}
					}
					JOINT LeftShoulder_virtual
					{
						OFFSET 0.000000 0.000000 0.000000
						CHANNELS 3 Zrotation Yrotation Xrotation
						JOINT LeftShoulder
						{
							OFFSET 6.197824 13.665230 -4.064723
							CHANNELS 3 Zrotation Yrotation Xrotation
							JOINT LeftArm
							{
								OFFSET 7.778132 -0.187073 -1.709282
								CHANNELS 3 Zrotation Yrotation Xrotation
								JOINT LeftForeArm
								{
									OFFSET 21.954697 0.000000 -2.041093
									CHANNELS 3 Zrotation Yrotation Xrotation
									JOINT LeftHand
									{
										OFFSET 22.992908 0.000000 -0.870901
										CHANNELS 3 Zrotation Yrotation Xrotation
										End Site
										{
											OFFSET 0.000000 0.000000 0.000000
										}
									}
								}
							}
						}
					}
					JOINT RightShoulder_virtual
					{
						OFFSET 0.000000 0.000000 0.000000
						CHANNELS 3 Zrotation Yrotation Xrotation
						JOINT RightShoulder
						{
							OFFSET -6.197824 13.665230 -4.064723
							CHANNELS 3 Zrotation Yrotation Xrotation
							JOINT RightArm
							{
								OFFSET -7.778132 -0.187073 -1.709282
								CHANNELS 3 Zrotation Yrotation Xrotation
								JOINT RightForeArm
								{
									OFFSET -21.954697 0.000000 -2.041093
									CHANNELS 3 Zrotation Yrotation Xrotation
									JOINT RightHand
									{
										OFFSET -22.992908 0.000000 -0.870901
										CHANNELS 3 Zrotation Yrotation Xrotation
										End Site
										{
											OFFSET 0.000000 0.000000 0.000000
										}
									}
								}
							}
						}
					}
				}
			}
		}
	}
}
MOTION
Frames: 7
Frame Time: 0.033333
-6.698720 65.315926 3.042166 179.648305 6.338438 -179.914955 -0.212150 -2.366192 10.817110 0.773195 13.023731 -75.826588 5.698436 -0.303560 86.851190 -7.448423 -14.019828 -15.798448 0.000000 0.000000 0.000000 2.397486 -1.665405 10.680972 -0.755523 -7.861392 -78.683834 0.497940 1.896084 88.280741 -0.099906 7.230050 -16.652249 0.000000 0.000000 0.000000 3.600284 0.020891 14.643482 -1.662995 -0.465674 11.530025 -1.949500 -0.476079 12.749207 0.028011 -0.063500 -0.018275 -1.418727 0.028970 13.410955 -3.501114 0.400809 -1.037335 0.000000 0.000000 0.000000 -0.535723 0.563094 9.074160 3.657071 -8.770253 0.602878 -46.481729 -20.241506 -23.380069 3.210400 -74.722235 -0.633701 0.000000 0.000000 0.000000 -3.904753 2.121073 8.746463 21.164632 5.246479 2.073663 59.089763 -10.729437 7.412551 -12.840303 72.081418 -15.409414 0.000000 0.000000 0.000000 
-7.165725 64.306244 3.641398 -179.968600 6.338706 -179.856366 0.001725 -2.574328 9.395971 0.757468 13.759280 -76.411020 5.550727 -0.112697 88.888000 -7.280795 -14.034249 -16.047823 0.000000 0.000000 0.000000 2.423286 -1.620179 9.479535 -1.060053 -7.767266 -79.373649 0.553107 1.903042 89.871540 -0.267609 7.665495 -16.510852 0.000000 0.000000 0.000000 3.664683 -0.096234 13.013884 -1.939032 -0.668161 10.918550 -1.943328 -0.359985 13.018235 0.011676 -0.027666 0.005176 -1.629752 -0.087669 14.009202 -3.473227 0.666232 -1.036268 0.000000 0.000000 0.000000 -0.631579 0.675335 9.519548 3.491295 -9.451597 0.786594 -44.831620 -20.920460 -25.251652 3.129825 -76.019848 -0.445289 0.000000 0.000000 0.000000 -3.992047 2.251308 9.334711 21.565737 5.379084 1.816604 59.354419 -8.821235 5.850625 -11.436890 70.293793 -13.746955 0.000000 0.000000 0.000000 
-7.393350 63.477001 4.148120 179.970499 6.212222 179.924081 0.106764 -2.899809 8.143775 0.979466 14.052097 -76.413868 5.616021 0.235214 90.491701 -7.064586 -14.036337 -16.213658 0.000000 0.000000 0.000000 2.269212 -1.716726 8.259327 -1.327785 -7.675440 -79.479913 0.559478 1.967488 91.293094 -0.387986 7.994030 -16.487764 0.000000 0.000000 0.000000 3.367618 -0.204762 11.343179 -2.377490 -0.834576 10.331423 -2.025685 -0.241874 13.365680 -0.028684 0.003511 0.035308 -1.658562 0.147639 14.527800 -3.466726 0.790365 -1.023006 0.000000 0.000000 0.000000 -0.610609 0.801128 10.020064 3.476363 -10.338707 0.940711 -43.494426 -21.524984 -26.297447 2.849545 -77.103834 0.055090 0.000000 0.000000 0.000000 -3.944314 2.328404 9.880160 22.065457 5.484220 1.563523 59.328560 -7.036423 4.935305 -10.077561 68.397180 -12.029751 0.000000 0.000000 0.000000 
-7.447056 62.827744 4.538393 -179.928534 6.177389 -179.995279 0.252239 -3.196101 6.738021 1.355787 14.281868 -76.213382 5.579582 0.366936 91.719591 -6.915223 -14.163628 -16.257764 0.000000 0.000000 0.000000 2.312496 -1.761249 6.827736 -1.389917 -7.574178 -79.322504 0.492530 1.911807 92.383609 -0.458099 8.177124 -16.433030 0.000000 0.000000 0.000000 3.118020 -0.023411 9.272022 -2.724678 -1.046256 9.615474 -2.059411 -0.173887 13.747364 0.004786 -0.009829 0.037907 -1.830167 0.230695 15.059444 -3.576860 0.892913 -0.986854 0.000000 0.000000 0.000000 -0.691549 0.889341 10.549862 3.341333 -11.266826 1.190971 -42.504974 -22.030427 -26.585688 1.986671 -78.066877 1.178791 0.000000 0.000000 0.000000 -4.019762 2.336010 10.455975 22.742979 5.756456 1.260298 59.049280 -5.464652 4.556359 -9.137206 66.691900 -10.701440 0.000000 0.000000 0.000000 
-7.376341 62.336395 4.840628 -179.913740 6.218058 -179.988885 0.391291 -3.443483 5.332362 1.762916 14.492340 -75.664767 5.440598 0.417984 92.681787 -6.601412 -14.163876 -16.313683 0.000000 0.000000 0.000000 2.296848 -1.814130 5.365434 -1.377078 -7.634267 -78.860025 0.419165 1.896594 93.335758 -0.432748 8.199096 -16.334758 0.000000 0.000000 0.000000 2.679689 -0.014018 7.105153 -3.104123 -1.210578 8.821516 -2.102353 -0.078231 14.030846 0.002488 0.013712 -0.024179 -1.986949 0.273719 15.678264 -3.838600 0.865091 -1.000906 0.000000 0.000000 0.000000 -0.732026 0.992061 11.188541 3.066351 -12.051446 1.460898 -42.167771 -22.419099 -25.878301 1.323582 -78.896451 2.142200 0.000000 0.000000 0.000000 -4.053728 2.573048 11.064514 23.507238 5.914043 1.089065 58.530575 -3.882381 4.539654 -9.036508 65.305303 -10.185621 0.000000 0.000000 0.000000 
-7.259938 61.957439 5.052362 -179.906855 6.262530 179.984378 0.585924 -3.707657 3.956434 2.237861 14.513793 -74.865861 5.260567 0.346720 93.514251 -6.258075 -14.158188 -16.262559 0.000000 0.000000 0.000000 2.363102 -1.917512 3.947676 -1.261488 -7.816232 -78.256537 0.349216 1.851745 94.225827 -0.309132 8.174335 -16.345397 0.000000 0.000000 0.000000 2.312840 0.078069 4.837000 -3.367576 -1.294129 8.052582 -2.140259 0.007701 14.371153 0.019730 0.014112 0.016836 -2.104305 0.645933 16.143299 -4.008693 1.011836 -1.001066 0.000000 0.000000 0.000000 -0.769881 1.064208 11.695409 2.696984 -12.699197 1.660891 -42.307513 -22.798786 -24.765412 0.107708 -79.740785 3.661301 0.000000 0.000000 0.000000 -4.082256 2.538100 11.663951 24.268574 6.225638 0.919611 57.732693 -2.344828 4.199252 -8.714586 64.312064 -9.482096 0.000000 0.000000 0.000000 
-7.202073 61.648323 5.242314 -179.996931 6.440363 179.973504 0.765783 -4.006414 2.596499 2.529909 14.628428 -74.037222 5.113008 0.276827 94.211449 -5.899053 -14.143301 -16.206668 0.000000 0.000000 0.000000 2.417918 -2.052243 2.438142 -1.159694 -8.075154 -77.524478 0.329330 1.912155 94.974914 -0.077211 8.150770 -16.339785 0.000000 0.000000 0.000000 1.913760 0.000131 2.532947 -3.587620 -1.400304 7.264609 -2.234926 0.079803 14.672155 -0.028391 0.022994 0.003587 -2.187362 0.485033 16.652384 -4.415069 1.068657 -1.041595 0.000000 0.000000 0.000000 -0.693940 1.192329 12.200240 2.250549 -13.102585 1.905392 -42.886327 -23.187767 -23.141895 -0.728349 -80.596417 4.796576 0.000000 0.000000 0.000000 -4.046069 2.690876 12.242148 24.920299 6.536412 0.692837 56.642687 -0.754100 3.654735 -8.988464 63.561365 -9.409465 0.000000 0.000000 0.000000 
